<?xml version="1.0" encoding="utf-8"?>
<!-- Generator: Adobe Illustrator 16.0.4, SVG Export Plug-In . SVG Version: 6.00 Build 0)  -->
<!DOCTYPE svg PUBLIC "-//W3C//DTD SVG 1.1//EN" "http://www.w3.org/Graphics/SVG/1.1/DTD/svg11.dtd">
<svg version="1.1" id="Layer_1" xmlns="http://www.w3.org/2000/svg" xmlns:xlink="http://www.w3.org/1999/xlink" x="0px" y="0px"
	 width="20px" height="17px" viewBox="0 0 20 17" enable-background="new 0 0 20 17" xml:space="preserve">
<g>
	<polygon fill="#FFFFFF" points="0,15 2,15 2,17 4,17 4,15 4,13 0,13 	"/>
	<polygon fill="#FFFFFF" points="4,2 4,0 2,0 2,2 0,2 0,4 4,4 	"/>
	<path fill="#FFFFFF" d="M17,5h-2V3H5v2H3v7h2v1v2h2v-2h2v2h2v-2h2v2h2v-2v-1h2V5z M9,9H6V7h3V9z M14,9h-3V7h3V9z"/>
	<polygon fill="#FFFFFF" points="18,2 18,0 16,0 16,2 16,4 20,4 20,2 	"/>
	<polygon fill="#FFFFFF" points="16,15 16,17 18,17 18,15 20,15 20,13 16,13 	"/>
</g>
</svg>
